<?xml version="1.0" standalone="no"?>
<svg id="active-logo-svg" xmlns="http://www.w3.org/2000/svg" viewBox="0 0 500 500" width="100%" height="100%" class="w-full h-full" style="font-family: &quot;Playfair Display&quot;, Georgia, serif;"><defs><path id="curve-upper-arch" d="M 90,250 A 160,160 0 0,1 410,250" fill="none"/><path id="curve-lower-arch" d="M 90,250 A 160,160 0 0,0 410,250" fill="none"/><path id="curve-lower-slogan" d="M 120,250 A 130,130 0 0,0 380,250" fill="none"/><filter id="badge-shadow" x="-5%" y="-5%" width="110%" height="110%"><feDropShadow dx="0" dy="2" stdDeviation="3" flood-opacity="0.12"/></filter></defs><g id="style-corporate-lines"><g id="top-corporate-header"><line x1="45" y1="75" x2="455" y2="75" stroke="#dc2626" stroke-width="1.125"/><line x1="60" y1="85" x2="200" y2="85" stroke="#dc2626" stroke-width="2.25"/><line x1="300" y1="85" x2="440" y2="85" stroke="#dc2626" stroke-width="2.25"/><g transform="translate(250, 85)"><circle cx="0" cy="0" r="6" fill="#dc2626"/><circle cx="0" cy="0" r="3" fill="#d97706"/><line x1="-25" y1="0" x2="-10" y2="0" stroke="#d97706" stroke-width="2"/><line x1="10" y1="0" x2="25" y2="0" stroke="#d97706" stroke-width="2"/></g></g><g transform="translate(250, 155) scale(1.2)" fill="#d97706"><path transform="translate(-32, 0) scale(0.7)" d="M0,-10 L3,-3 L10,-3 L5,2 L7,9 L0,5 L-7,9 L-5,2 L-10,-3 L-3,-3 Z"/><path transform="translate(0, -2) scale(1)" d="M0,-10 L3,-3 L10,-3 L5,2 L7,9 L0,5 L-7,9 L-5,2 L-10,-3 L-3,-3 Z"/><path transform="translate(32, 0) scale(0.7)" d="M0,-10 L3,-3 L10,-3 L5,2 L7,9 L0,5 L-7,9 L-5,2 L-10,-3 L-3,-3 Z"/></g><text x="250" y="215" text-anchor="middle" fill="#171717" font-size="54" font-weight="800" letter-spacing="-0.5" style="font-family: &quot;Playfair Display&quot;, Georgia, serif;">Cremeria</text><g id="mid-separator"><line x1="90" y1="235" x2="215" y2="235" stroke="#dc2626" stroke-width="1.5"/><polygon points="250,230 256,235 250,240 244,235" fill="#d97706"/><line x1="285" y1="235" x2="410" y2="235" stroke="#dc2626" stroke-width="1.5"/></g><text x="250" y="308" text-anchor="middle" fill="#dc2626" font-size="62" font-weight="800" font-style="italic" letter-spacing="-0.5" style="font-family: &quot;Playfair Display&quot;, Georgia, serif;">del Rancho</text><g id="del-rancho-underline"><line x1="80" y1="330" x2="420" y2="330" stroke="#dc2626" stroke-width="1.35"/><circle cx="80" cy="330" r="3" fill="#dc2626"/><circle cx="420" cy="330" r="3" fill="#dc2626"/></g><text x="250" y="375" text-anchor="middle" fill="#4b5563" font-size="23" font-style="italic" font-weight="500" letter-spacing="1.5" style="font-family: &quot;Libre Baskerville&quot;, Georgia, serif;">Lo nuestro es calidad</text><g id="bottom-corporate-footer"><line x1="60" y1="410" x2="440" y2="410" stroke="#dc2626" stroke-width="2.25"/><line x1="45" y1="420" x2="455" y2="420" stroke="#dc2626" stroke-width="1.125"/><path d="M 45,410 L 45,395" stroke="#dc2626" stroke-width="1.125"/><path d="M 455,410 L 455,395" stroke="#dc2626" stroke-width="1.125"/><path d="M 45,85 L 45,100" stroke="#dc2626" stroke-width="1.125"/><path d="M 455,85 L 455,100" stroke="#dc2626" stroke-width="1.125"/></g></g></svg>